<?xml version="1.0" encoding="utf-8"?>
<!-- Generator: Adobe Illustrator 26.5.0, SVG Export Plug-In . SVG Version: 6.00 Build 0)  -->
<svg version="1.1" id="Layer_1" xmlns="http://www.w3.org/2000/svg" xmlns:xlink="http://www.w3.org/1999/xlink" x="0px" y="0px"
	 viewBox="0 0 708.7 498.9" style="enable-background:new 0 0 708.7 498.9;" xml:space="preserve">
<style type="text/css">
	.st0{fill:#607568;}
</style>
<g>
	<g>
		<g>
			<rect x="443.9" y="207.1" class="st0" width="61.8" height="3.8"/>
			<g>
				<g>
					<path class="st0" d="M123.5,291.8l-13.9-19.5c-1.6,0.2-3.1,0.3-4.8,0.3H88.5v19.2h-6.4v-58.1c0-1.4,1.1-2.6,2.6-2.6h20.1
						c15.4,0,24.8,7.8,24.8,20.8c0,9.5-5,16.2-13.9,19.1l14.8,20.8H123.5z M123.2,252c0-9.7-6.4-15.2-18.5-15.2H91.1
						c-1.4,0-2.6,1.1-2.6,2.6v27.8h16.1C116.8,267.1,123.2,261.5,123.2,252z"/>
					<path class="st0" d="M177.7,236.7v-5.5H218c1.4,0,2.6,1.1,2.6,2.6v55.5c0,1.4-1.1,2.6-2.6,2.6h-39v-5.5h32.6
						c1.4,0,2.6-1.1,2.6-2.6v-19h-31.4v-5.5h31.4v-20c0-1.4-1.1-2.6-2.6-2.6H177.7z"/>
					<path class="st0" d="M316,252c0,12.9-9.4,20.7-24.8,20.7h-16.3v19.1h-6.4v-58.1c0-1.4,1.1-2.6,2.6-2.6h20.1
						C306.6,231.2,316,239,316,252z M309.6,252c0-9.7-6.4-15.2-18.5-15.2h-13.6c-1.4,0-2.6,1.1-2.6,2.6v27.8H291
						C303.2,267.1,309.6,261.5,309.6,252z"/>
					<path class="st0" d="M405.6,286.3v5.5h-40.3c-1.4,0-2.6-1.1-2.6-2.6v-55.5c0-1.4,1.1-2.6,2.6-2.6h39v5.5h-32.6
						c-1.4,0-2.6,1.1-2.6,2.6v19h31.4v5.5h-31.4v20c0,1.4,1.1,2.6,2.6,2.6H405.6z"/>
					<path class="st0" d="M457.9,247.4h33.8l7.3-16.2h6.7L479.3,289c-0.8,1.8-2.6,2.9-4.5,2.9h0c-1.9,0-3.7-1.1-4.5-2.9l-26.4-57.8
						h6.8L457.9,247.4z M460.3,252.6l12.1,27.1c0.9,2.1,3.9,2.1,4.8,0l12.1-27.1H460.3z"/>
					<path class="st0" d="M554.8,236.7h-18.8v-5.5h49v5.5h-18.8c-1.4,0-2.6,1.1-2.6,2.6v52.5h-6.4v-52.5
						C557.4,237.9,556.2,236.7,554.8,236.7z"/>
				</g>
			</g>
		</g>
	</g>
	<g>
		<g>
			<path class="st0" d="M618.5,238.8l-2.3-3.2c-0.3,0-0.5,0-0.8,0h-2.7v3.1h-1v-9.5c0-0.2,0.2-0.4,0.4-0.4h3.3c2.5,0,4,1.3,4,3.4
				c0,1.6-0.8,2.6-2.3,3.1l2.4,3.4H618.5z M618.4,232.3c0-1.6-1-2.5-3-2.5h-2.2c-0.2,0-0.4,0.2-0.4,0.4v4.5h2.6
				C617.4,234.7,618.4,233.8,618.4,232.3z"/>
			<path class="st0" d="M615.7,244.7c-6,0-10.9-4.9-10.9-10.9s4.9-10.9,10.9-10.9c6,0,10.9,4.9,10.9,10.9S621.7,244.7,615.7,244.7z
				 M615.7,223.9c-5.5,0-9.9,4.5-9.9,9.9c0,5.5,4.5,9.9,9.9,9.9c5.5,0,9.9-4.5,9.9-9.9C625.6,228.3,621.2,223.9,615.7,223.9z"/>
		</g>
	</g>
</g>
</svg>
